<?xml version="1.0" encoding="iso-8859-1"?>
<!-- Generator: Adobe Illustrator 19.0.0, SVG Export Plug-In . SVG Version: 6.00 Build 0)  -->
<svg version="1.1" id="Capa_1" xmlns="http://www.w3.org/2000/svg" xmlns:xlink="http://www.w3.org/1999/xlink" x="0px" y="0px"
	 viewBox="0 0 512 512" style="enable-background:new 0 0 512 512;" xml:space="preserve">
<linearGradient id="SVGID_1_" gradientUnits="userSpaceOnUse" x1="256" y1="514" x2="256" y2="2" gradientTransform="matrix(1 0 0 -1 0 514)">
	<stop  offset="0" style="stop-color:#2AF598"/>
	<stop  offset="1" style="stop-color:#009EFD"/>
</linearGradient>
<path style="fill:url(#SVGID_1_);" d="M310,234h40v105.228l-56.237,47.968l-25.958-30.434L310,320.772V234z M452,40h-24V0h-40v40
	H124V0H84v40H60C26.916,40,0,66.916,0,100v352c0,33.084,26.916,60,60,60h68h21h53.785c-10.522-7.389-20.482-15.742-29.763-25.022
	c-4.813-4.813-9.365-9.816-13.676-14.978H149h-21H60c-11.028,0-20-8.972-20-20V187h119.347c4.311-5.162,8.863-10.165,13.676-14.978
	c9.28-9.28,19.24-17.633,29.763-25.022H40v-47c0-11.028,8.972-20,20-20h24v40h40V80h264v40h40V80h24c11.028,0,20,8.972,20,20v36h40
	v-36C512,66.916,485.084,40,452,40z M472,216.052C438.018,173.649,386.214,148,330,148c-100.355,0-182,81.645-182,182
	c0,100.354,81.644,181.999,181.998,182l0,0c0.006,0,0.012,0,0.019,0c5.428,0,10.911-0.243,16.295-0.722l-3.546-39.843
	c-4.211,0.375-8.5,0.565-12.75,0.565c-0.005,0-0.01,0-0.015,0L330,492v-20c-78.299,0-142-63.701-142-142s63.701-142,142-142
	c45.983,0,88.17,22.007,114.534,58H402v40h110V176h-40V216.052z M376.922,464.07l13.212,37.755
	c14.127-4.943,27.638-11.649,40.158-19.93l-22.067-33.362C398.461,454.991,387.929,460.218,376.922,464.07z M434.818,425.798
	l29.517,26.996c10.122-11.066,18.854-23.355,25.956-36.524l-35.208-18.985C449.541,407.563,442.723,417.156,434.818,425.798z
	 M467.731,364.713l38.795,9.743C510.158,359.995,512,345.038,512,330h-40C472,341.756,470.564,353.435,467.731,364.713z"/>
<g>
</g>
<g>
</g>
<g>
</g>
<g>
</g>
<g>
</g>
<g>
</g>
<g>
</g>
<g>
</g>
<g>
</g>
<g>
</g>
<g>
</g>
<g>
</g>
<g>
</g>
<g>
</g>
<g>
</g>
</svg>
