<svg height="496pt" viewBox="0 0 496 496" width="496pt" xmlns="http://www.w3.org/2000/svg" xmlns:xlink="http://www.w3.org/1999/xlink"><linearGradient id="a" gradientUnits="userSpaceOnUse" x1="248" x2="248" y1="496" y2="0"><stop offset="0" stop-color="#9f2fff"/><stop offset="1" stop-color="#0bb1d3"/></linearGradient><path d="m422.078125 344.503906 7.160156-75.167968c3.25 1.648437 6.875 2.664062 10.761719 2.664062 13.230469 0 24-10.769531 24-24v-93.894531c0-14.21875-9.542969-26.867188-23.207031-30.769531l-32.792969-9.367188v-14.289062c9.792969-8.792969 16-21.503907 16-35.679688v-16c0-26.472656-21.527344-48-48-48s-48 21.527344-48 48v16c0 14.167969 6.207031 26.878906 16 35.679688v14.289062l-32.792969 9.367188c-13.664062 3.894531-23.207031 16.550781-23.207031 30.769531v10.152343l-8-2.289062v-14.289062c9.792969-8.792969 16-21.503907 16-35.679688v-16c0-26.472656-21.527344-48-48-48s-48 21.527344-48 48v16c0 14.167969 6.207031 26.878906 16 35.679688v14.289062l-8 2.289062v-10.152343c0-14.21875-9.542969-26.867188-23.207031-30.769531l-32.792969-9.367188v-14.289062c9.792969-8.792969 16-21.503907 16-35.679688v-16c0-26.472656-21.527344-48-48-48s-48 21.527344-48 48v16c0 14.167969 6.207031 26.878906 16 35.679688v14.289062l-32.792969 9.367188c-13.664062 3.894531-23.207031 16.550781-23.207031 30.769531v93.894531c0 13.230469 10.769531 24 24 24 3.886719 0 7.511719-1.015625 10.761719-2.664062l7.160156 75.167968c-47.699219 16.257813-73.921875 38.671875-73.921875 63.496094 0 42.664062 86.921875 88 248 88s248-45.335938 248-88c0-24.824219-26.222656-47.238281-73.921875-63.496094zm-70.804687 55.496094-14.480469-152h31.207031v152zm32.726562-152h31.207031l-14.480469 152h-16.726562zm-40-200c0-17.648438 14.351562-32 32-32s32 14.351562 32 32v16c0 17.648438-14.351562 32-32 32s-32-14.351562-32-32zm32 64c5.617188 0 10.984375-1.023438 16-2.800781v8.59375c-1.984375 3.0625-7.496094 10.207031-16 10.207031-8.519531 0-14.039062-7.175781-16-10.199219v-8.601562c5.015625 1.777343 10.382812 2.800781 16 2.800781zm-72 42.105469c0-7.105469 4.777344-13.433594 11.601562-15.386719l32.957032-9.414062c4.648437 6.046874 13.671875 14.695312 27.441406 14.695312s22.792969-8.648438 27.433594-14.695312l32.957031 9.414062c6.832031 1.953125 11.601563 8.28125 11.601563 15.386719v93.894531c0 4.40625-3.585938 8-8 8-4.417969 0-8-3.59375-8-8v-80h-16v64h-79.992188v-64h-16v6.519531c-2.246094-1.3125-4.625-2.449219-7.207031-3.183593l-8.792969-2.511719zm-88-58.105469c0-17.648438 14.351562-32 32-32s32 14.351562 32 32v16c0 17.648438-14.351562 32-32 32s-32-14.351562-32-32zm32 64c5.617188 0 10.984375-1.023438 16-2.800781v8.59375c-1.984375 3.0625-7.496094 10.207031-16 10.207031s-14.015625-7.144531-16-10.207031v-8.59375c5.015625 1.777343 10.382812 2.800781 16 2.800781zm-27.433594 17.304688c4.640625 6.046874 13.664063 14.695312 27.433594 14.695312s22.792969-8.648438 27.433594-14.695312l32.957031 9.414062c6.832031 1.953125 11.601563 8.28125 11.601563 15.386719v93.894531c0 4.40625-3.585938 8-8 8-4.417969 0-8-3.59375-8-8v-80h-16v64h-79.992188v-64h-16v80c0 4.40625-3.585938 8-8 8s-8-3.59375-8-8v-93.894531c0-7.105469 4.777344-13.433594 11.601562-15.386719zm2.707032 270.695312-14.480469-152h31.207031v152zm32.726562-152h31.207031l-14.480469 152h-16.726562zm-160.726562 104-14.480469-152h31.207031v152zm32.726562-152h31.207031l-14.480469 152h-16.726562zm-40-200c0-17.648438 14.351562-32 32-32s32 14.351562 32 32v16c0 17.648438-14.351562 32-32 32s-32-14.351562-32-32zm32 64c5.617188 0 10.984375-1.023438 16-2.800781v8.59375c-1.984375 3.0625-7.496094 10.207031-16 10.207031s-14.015625-7.144531-16-10.207031v-8.59375c5.015625 1.777343 10.382812 2.800781 16 2.800781zm-64 144c-4.414062 0-8-3.59375-8-8v-93.894531c0-7.105469 4.777344-13.433594 11.601562-15.386719l32.957032-9.414062c4.648437 6.046874 13.671875 14.695312 27.441406 14.695312s22.792969-8.648438 27.433594-14.695312l32.957031 9.414062c6.832031 1.953125 11.601563 8.28125 11.601563 15.386719v14.71875l-8.792969 2.511719c-2.582031.734374-4.960938 1.871093-7.207031 3.183593v-6.519531h-16v64h-79.992188v-64h-16v80c0 4.40625-3.585938 8-8 8zm192 224c-136.71875 0-232-37.945312-232-72 0-16.457031 22.054688-33.769531 59.480469-47.113281l5.246093 55.113281h78.546876l9.664062-101.472656c4.132812 3.367187 9.328125 5.472656 15.0625 5.472656 3.886719 0 7.511719-1.015625 10.761719-2.664062l13.964843 146.664062h78.546876l13.964843-146.664062c3.25 1.648437 6.875 2.664062 10.761719 2.664062 5.734375 0 10.929688-2.105469 15.0625-5.472656l9.664062 101.472656h78.546876l5.246093-55.113281c37.425781 13.34375 59.480469 30.65625 59.480469 47.113281 0 34.054688-95.28125 72-232 72zm0 0" fill="url(#a)"/></svg>