<?xml version="1.0" encoding="iso-8859-1"?>
<!-- Generator: Adobe Illustrator 19.0.0, SVG Export Plug-In . SVG Version: 6.00 Build 0)  -->
<svg version="1.1" id="Capa_1" xmlns="http://www.w3.org/2000/svg" xmlns:xlink="http://www.w3.org/1999/xlink" x="0px" y="0px"
	 viewBox="0 0 512 512" style="enable-background:new 0 0 512 512;" xml:space="preserve">
<circle style="fill:#005FD1;" cx="256" cy="256" r="256"/>
<path style="fill:#003D8D;" d="M507.703,302.876l-57.626-57.626c-71.96-73.37-142.133-88.299-194.077-88.299
	c-54.39,0-128.765,16.362-204.249,99.049l251.147,251.699C406.684,488.482,488.494,406.666,507.703,302.876z"/>
<path style="fill:#FFFFFF;" d="M256,156.951c-54.39,0-128.764,16.363-204.249,99.049C127.235,338.687,201.61,355.049,256,355.049
	S384.764,338.686,460.249,256C384.764,173.313,310.39,156.951,256,156.951z"/>
<path style="fill:#FFF5CB;" d="M460.25,256c-75.49,82.69-149.86,99.05-204.25,99.05v-198.1C310.39,156.95,384.76,173.31,460.25,256z
	"/>
<circle style="fill:#00EED0;" cx="256" cy="256" r="77.5"/>
<path style="fill:#00CEB4;" d="M333.5,256c0,42.8-34.7,77.5-77.5,77.5v-155C298.8,178.5,333.5,213.2,333.5,256z"/>
<circle style="fill:#00AD95;" cx="256" cy="256" r="36.33"/>
<path style="fill:#006659;" d="M292.33,256c0,20.07-16.26,36.33-36.33,36.33v-72.66C276.07,219.67,292.33,235.93,292.33,256z"/>
<g>
</g>
<g>
</g>
<g>
</g>
<g>
</g>
<g>
</g>
<g>
</g>
<g>
</g>
<g>
</g>
<g>
</g>
<g>
</g>
<g>
</g>
<g>
</g>
<g>
</g>
<g>
</g>
<g>
</g>
</svg>
